<svg xmlns="http://www.w3.org/2000/svg" xmlns:xlink="http://www.w3.org/1999/xlink" width="500" zoomAndPan="magnify" viewBox="0 0 375 374.999991" height="500" preserveAspectRatio="xMidYMid meet" version="1.0"><defs><g/></defs><g fill="#000000" fill-opacity="1"><g transform="translate(143.718026, 49.728942)"><g><path d="M 8.65625 0 L 6.78125 0 L 6.09375 -2.078125 L 2.640625 -2.078125 L 1.96875 0 L 0.140625 0 L 3.25 -9.015625 L 5.53125 -9.015625 Z M 4.28125 -7.125 L 3.125 -3.578125 L 5.609375 -3.578125 L 4.4375 -7.125 Z M 4.28125 -7.125 "/></g></g></g><g fill="#000000" fill-opacity="1"><g transform="translate(152.500561, 49.728942)"><g><path d="M 3.359375 0.125 C 2.816406 0.125 2.335938 -0.00390625 1.921875 -0.265625 C 1.515625 -0.523438 1.191406 -0.914062 0.953125 -1.4375 C 0.722656 -1.96875 0.609375 -2.617188 0.609375 -3.390625 C 0.609375 -4.171875 0.726562 -4.820312 0.96875 -5.34375 C 1.207031 -5.875 1.539062 -6.269531 1.96875 -6.53125 C 2.394531 -6.789062 2.890625 -6.921875 3.453125 -6.921875 C 3.867188 -6.921875 4.234375 -6.847656 4.546875 -6.703125 C 4.859375 -6.554688 5.117188 -6.332031 5.328125 -6.03125 L 5.46875 -6.0625 L 5.46875 -9.53125 L 7.171875 -9.53125 L 7.171875 0 L 5.46875 0 L 5.46875 -0.875 L 5.328125 -0.90625 C 5.140625 -0.582031 4.878906 -0.328125 4.546875 -0.140625 C 4.222656 0.0351562 3.828125 0.125 3.359375 0.125 Z M 3.921875 -1.3125 C 4.398438 -1.3125 4.773438 -1.484375 5.046875 -1.828125 C 5.328125 -2.171875 5.46875 -2.691406 5.46875 -3.390625 C 5.46875 -4.085938 5.328125 -4.609375 5.046875 -4.953125 C 4.773438 -5.304688 4.398438 -5.484375 3.921875 -5.484375 C 3.410156 -5.484375 3.023438 -5.3125 2.765625 -4.96875 C 2.503906 -4.632812 2.375 -4.109375 2.375 -3.390625 C 2.375 -2.679688 2.503906 -2.15625 2.765625 -1.8125 C 3.023438 -1.476562 3.410156 -1.3125 3.921875 -1.3125 Z M 3.921875 -1.3125 "/></g></g></g><g fill="#000000" fill-opacity="1"><g transform="translate(160.648286, 49.728942)"><g><path d="M 3.359375 0.125 C 2.816406 0.125 2.335938 -0.00390625 1.921875 -0.265625 C 1.515625 -0.523438 1.191406 -0.914062 0.953125 -1.4375 C 0.722656 -1.96875 0.609375 -2.617188 0.609375 -3.390625 C 0.609375 -4.171875 0.726562 -4.820312 0.96875 -5.34375 C 1.207031 -5.875 1.539062 -6.269531 1.96875 -6.53125 C 2.394531 -6.789062 2.890625 -6.921875 3.453125 -6.921875 C 3.867188 -6.921875 4.234375 -6.847656 4.546875 -6.703125 C 4.859375 -6.554688 5.117188 -6.332031 5.328125 -6.03125 L 5.46875 -6.0625 L 5.46875 -9.53125 L 7.171875 -9.53125 L 7.171875 0 L 5.46875 0 L 5.46875 -0.875 L 5.328125 -0.90625 C 5.140625 -0.582031 4.878906 -0.328125 4.546875 -0.140625 C 4.222656 0.0351562 3.828125 0.125 3.359375 0.125 Z M 3.921875 -1.3125 C 4.398438 -1.3125 4.773438 -1.484375 5.046875 -1.828125 C 5.328125 -2.171875 5.46875 -2.691406 5.46875 -3.390625 C 5.46875 -4.085938 5.328125 -4.609375 5.046875 -4.953125 C 4.773438 -5.304688 4.398438 -5.484375 3.921875 -5.484375 C 3.410156 -5.484375 3.023438 -5.3125 2.765625 -4.96875 C 2.503906 -4.632812 2.375 -4.109375 2.375 -3.390625 C 2.375 -2.679688 2.503906 -2.15625 2.765625 -1.8125 C 3.023438 -1.476562 3.410156 -1.3125 3.921875 -1.3125 Z M 3.921875 -1.3125 "/></g></g></g><g fill="#000000" fill-opacity="1"><g transform="translate(168.796012, 49.728942)"><g/></g></g><g fill="#000000" fill-opacity="1"><g transform="translate(171.77283, 49.728942)"><g><path d="M 2.65625 0.125 C 2.21875 0.125 1.835938 0.046875 1.515625 -0.109375 C 1.191406 -0.265625 0.941406 -0.5 0.765625 -0.8125 C 0.597656 -1.125 0.515625 -1.5 0.515625 -1.9375 C 0.515625 -2.34375 0.597656 -2.679688 0.765625 -2.953125 C 0.941406 -3.222656 1.210938 -3.445312 1.578125 -3.625 C 1.941406 -3.800781 2.414062 -3.9375 3 -4.03125 C 3.40625 -4.09375 3.710938 -4.160156 3.921875 -4.234375 C 4.128906 -4.316406 4.269531 -4.40625 4.34375 -4.5 C 4.425781 -4.601562 4.46875 -4.726562 4.46875 -4.875 C 4.46875 -5.09375 4.390625 -5.257812 4.234375 -5.375 C 4.078125 -5.488281 3.828125 -5.546875 3.484375 -5.546875 C 3.097656 -5.546875 2.734375 -5.460938 2.390625 -5.296875 C 2.054688 -5.128906 1.765625 -4.910156 1.515625 -4.640625 L 1.390625 -4.640625 L 0.671875 -5.71875 C 1.015625 -6.09375 1.4375 -6.382812 1.9375 -6.59375 C 2.4375 -6.8125 2.976562 -6.921875 3.5625 -6.921875 C 4.457031 -6.921875 5.109375 -6.726562 5.515625 -6.34375 C 5.921875 -5.96875 6.125 -5.429688 6.125 -4.734375 L 6.125 -1.78125 C 6.125 -1.46875 6.253906 -1.3125 6.515625 -1.3125 C 6.617188 -1.3125 6.722656 -1.332031 6.828125 -1.375 L 6.90625 -1.34375 L 7.03125 -0.15625 C 6.9375 -0.09375 6.804688 -0.0390625 6.640625 0 C 6.472656 0.03125 6.285156 0.046875 6.078125 0.046875 C 5.671875 0.046875 5.351562 -0.03125 5.125 -0.1875 C 4.90625 -0.34375 4.742188 -0.585938 4.640625 -0.921875 L 4.515625 -0.9375 C 4.179688 -0.226562 3.5625 0.125 2.65625 0.125 Z M 3.1875 -1.140625 C 3.582031 -1.140625 3.898438 -1.269531 4.140625 -1.53125 C 4.378906 -1.800781 4.5 -2.175781 4.5 -2.65625 L 4.5 -3.34375 L 4.375 -3.359375 C 4.269531 -3.285156 4.132812 -3.21875 3.96875 -3.15625 C 3.800781 -3.101562 3.5625 -3.050781 3.25 -3 C 2.882812 -2.9375 2.617188 -2.828125 2.453125 -2.671875 C 2.296875 -2.523438 2.21875 -2.316406 2.21875 -2.046875 C 2.21875 -1.753906 2.300781 -1.53125 2.46875 -1.375 C 2.644531 -1.21875 2.882812 -1.140625 3.1875 -1.140625 Z M 3.1875 -1.140625 "/></g></g></g><g fill="#000000" fill-opacity="1"><g transform="translate(178.940611, 49.728942)"><g/></g></g><g fill="#000000" fill-opacity="1"><g transform="translate(181.917429, 49.728942)"><g><path d="M 0.984375 0 L 0.984375 -9.53125 L 2.6875 -9.53125 L 2.6875 -5.90625 L 2.8125 -5.890625 C 3.039062 -6.222656 3.316406 -6.476562 3.640625 -6.65625 C 3.972656 -6.832031 4.375 -6.921875 4.84375 -6.921875 C 6.34375 -6.921875 7.09375 -6.070312 7.09375 -4.375 L 7.09375 0 L 5.375 0 L 5.375 -4.15625 C 5.375 -4.625 5.28125 -4.960938 5.09375 -5.171875 C 4.914062 -5.378906 4.628906 -5.484375 4.234375 -5.484375 C 3.765625 -5.484375 3.390625 -5.320312 3.109375 -5 C 2.828125 -4.6875 2.6875 -4.191406 2.6875 -3.515625 L 2.6875 0 Z M 0.984375 0 "/></g></g></g><g fill="#000000" fill-opacity="1"><g transform="translate(189.880259, 49.728942)"><g><path d="M 6.71875 -3.015625 L 2.34375 -3.015625 C 2.394531 -2.421875 2.5625 -1.988281 2.84375 -1.71875 C 3.132812 -1.445312 3.53125 -1.3125 4.03125 -1.3125 C 4.425781 -1.3125 4.742188 -1.382812 4.984375 -1.53125 C 5.222656 -1.675781 5.414062 -1.898438 5.5625 -2.203125 L 5.703125 -2.203125 L 6.828125 -1.46875 C 6.609375 -1 6.273438 -0.613281 5.828125 -0.3125 C 5.378906 -0.0195312 4.78125 0.125 4.03125 0.125 C 3.332031 0.125 2.722656 -0.00390625 2.203125 -0.265625 C 1.691406 -0.535156 1.296875 -0.929688 1.015625 -1.453125 C 0.742188 -1.984375 0.609375 -2.628906 0.609375 -3.390625 C 0.609375 -4.171875 0.753906 -4.820312 1.046875 -5.34375 C 1.335938 -5.875 1.734375 -6.269531 2.234375 -6.53125 C 2.734375 -6.789062 3.289062 -6.921875 3.90625 -6.921875 C 4.863281 -6.921875 5.597656 -6.664062 6.109375 -6.15625 C 6.628906 -5.65625 6.890625 -4.910156 6.890625 -3.921875 C 6.890625 -3.566406 6.875 -3.289062 6.84375 -3.09375 Z M 5.25 -4.125 C 5.238281 -4.632812 5.117188 -5.007812 4.890625 -5.25 C 4.671875 -5.488281 4.34375 -5.609375 3.90625 -5.609375 C 3.039062 -5.609375 2.535156 -5.113281 2.390625 -4.125 Z M 5.25 -4.125 "/></g></g></g><g fill="#000000" fill-opacity="1"><g transform="translate(197.269915, 49.728942)"><g><path d="M 2.65625 0.125 C 2.21875 0.125 1.835938 0.046875 1.515625 -0.109375 C 1.191406 -0.265625 0.941406 -0.5 0.765625 -0.8125 C 0.597656 -1.125 0.515625 -1.5 0.515625 -1.9375 C 0.515625 -2.34375 0.597656 -2.679688 0.765625 -2.953125 C 0.941406 -3.222656 1.210938 -3.445312 1.578125 -3.625 C 1.941406 -3.800781 2.414062 -3.9375 3 -4.03125 C 3.40625 -4.09375 3.710938 -4.160156 3.921875 -4.234375 C 4.128906 -4.316406 4.269531 -4.40625 4.34375 -4.5 C 4.425781 -4.601562 4.46875 -4.726562 4.46875 -4.875 C 4.46875 -5.09375 4.390625 -5.257812 4.234375 -5.375 C 4.078125 -5.488281 3.828125 -5.546875 3.484375 -5.546875 C 3.097656 -5.546875 2.734375 -5.460938 2.390625 -5.296875 C 2.054688 -5.128906 1.765625 -4.910156 1.515625 -4.640625 L 1.390625 -4.640625 L 0.671875 -5.71875 C 1.015625 -6.09375 1.4375 -6.382812 1.9375 -6.59375 C 2.4375 -6.8125 2.976562 -6.921875 3.5625 -6.921875 C 4.457031 -6.921875 5.109375 -6.726562 5.515625 -6.34375 C 5.921875 -5.96875 6.125 -5.429688 6.125 -4.734375 L 6.125 -1.78125 C 6.125 -1.46875 6.253906 -1.3125 6.515625 -1.3125 C 6.617188 -1.3125 6.722656 -1.332031 6.828125 -1.375 L 6.90625 -1.34375 L 7.03125 -0.15625 C 6.9375 -0.09375 6.804688 -0.0390625 6.640625 0 C 6.472656 0.03125 6.285156 0.046875 6.078125 0.046875 C 5.671875 0.046875 5.351562 -0.03125 5.125 -0.1875 C 4.90625 -0.34375 4.742188 -0.585938 4.640625 -0.921875 L 4.515625 -0.9375 C 4.179688 -0.226562 3.5625 0.125 2.65625 0.125 Z M 3.1875 -1.140625 C 3.582031 -1.140625 3.898438 -1.269531 4.140625 -1.53125 C 4.378906 -1.800781 4.5 -2.175781 4.5 -2.65625 L 4.5 -3.34375 L 4.375 -3.359375 C 4.269531 -3.285156 4.132812 -3.21875 3.96875 -3.15625 C 3.800781 -3.101562 3.5625 -3.050781 3.25 -3 C 2.882812 -2.9375 2.617188 -2.828125 2.453125 -2.671875 C 2.296875 -2.523438 2.21875 -2.316406 2.21875 -2.046875 C 2.21875 -1.753906 2.300781 -1.53125 2.46875 -1.375 C 2.644531 -1.21875 2.882812 -1.140625 3.1875 -1.140625 Z M 3.1875 -1.140625 "/></g></g></g><g fill="#000000" fill-opacity="1"><g transform="translate(204.437693, 49.728942)"><g><path d="M 3.359375 0.125 C 2.816406 0.125 2.335938 -0.00390625 1.921875 -0.265625 C 1.515625 -0.523438 1.191406 -0.914062 0.953125 -1.4375 C 0.722656 -1.96875 0.609375 -2.617188 0.609375 -3.390625 C 0.609375 -4.171875 0.726562 -4.820312 0.96875 -5.34375 C 1.207031 -5.875 1.539062 -6.269531 1.96875 -6.53125 C 2.394531 -6.789062 2.890625 -6.921875 3.453125 -6.921875 C 3.867188 -6.921875 4.234375 -6.847656 4.546875 -6.703125 C 4.859375 -6.554688 5.117188 -6.332031 5.328125 -6.03125 L 5.46875 -6.0625 L 5.46875 -9.53125 L 7.171875 -9.53125 L 7.171875 0 L 5.46875 0 L 5.46875 -0.875 L 5.328125 -0.90625 C 5.140625 -0.582031 4.878906 -0.328125 4.546875 -0.140625 C 4.222656 0.0351562 3.828125 0.125 3.359375 0.125 Z M 3.921875 -1.3125 C 4.398438 -1.3125 4.773438 -1.484375 5.046875 -1.828125 C 5.328125 -2.171875 5.46875 -2.691406 5.46875 -3.390625 C 5.46875 -4.085938 5.328125 -4.609375 5.046875 -4.953125 C 4.773438 -5.304688 4.398438 -5.484375 3.921875 -5.484375 C 3.410156 -5.484375 3.023438 -5.3125 2.765625 -4.96875 C 2.503906 -4.632812 2.375 -4.109375 2.375 -3.390625 C 2.375 -2.679688 2.503906 -2.15625 2.765625 -1.8125 C 3.023438 -1.476562 3.410156 -1.3125 3.921875 -1.3125 Z M 3.921875 -1.3125 "/></g></g></g><g fill="#000000" fill-opacity="1"><g transform="translate(212.585415, 49.728942)"><g><path d="M 1.828125 -7.609375 C 1.523438 -7.609375 1.273438 -7.703125 1.078125 -7.890625 C 0.890625 -8.078125 0.796875 -8.320312 0.796875 -8.625 C 0.796875 -8.914062 0.890625 -9.148438 1.078125 -9.328125 C 1.273438 -9.515625 1.523438 -9.609375 1.828125 -9.609375 C 2.035156 -9.609375 2.21875 -9.566406 2.375 -9.484375 C 2.539062 -9.398438 2.664062 -9.28125 2.75 -9.125 C 2.84375 -8.976562 2.890625 -8.8125 2.890625 -8.625 C 2.890625 -8.425781 2.84375 -8.25 2.75 -8.09375 C 2.664062 -7.945312 2.539062 -7.828125 2.375 -7.734375 C 2.21875 -7.648438 2.035156 -7.609375 1.828125 -7.609375 Z M 0.984375 0 L 0.984375 -6.796875 L 2.6875 -6.796875 L 2.6875 0 Z M 0.984375 0 "/></g></g></g><g fill="#000000" fill-opacity="1"><g transform="translate(216.246341, 49.728942)"><g><path d="M 0.984375 0 L 0.984375 -6.796875 L 2.625 -6.796875 L 2.625 -5.796875 L 2.75 -5.765625 C 3.175781 -6.535156 3.863281 -6.921875 4.8125 -6.921875 C 5.59375 -6.921875 6.164062 -6.707031 6.53125 -6.28125 C 6.90625 -5.851562 7.09375 -5.234375 7.09375 -4.421875 L 7.09375 0 L 5.375 0 L 5.375 -4.203125 C 5.375 -4.660156 5.285156 -4.988281 5.109375 -5.1875 C 4.929688 -5.382812 4.640625 -5.484375 4.234375 -5.484375 C 3.742188 -5.484375 3.363281 -5.320312 3.09375 -5 C 2.820312 -4.6875 2.6875 -4.191406 2.6875 -3.515625 L 2.6875 0 Z M 0.984375 0 "/></g></g></g><g fill="#000000" fill-opacity="1"><g transform="translate(224.209171, 49.728942)"><g><path d="M 3.53125 2.890625 C 2.40625 2.890625 1.570312 2.722656 1.03125 2.390625 C 0.5 2.066406 0.234375 1.609375 0.234375 1.015625 C 0.234375 0.660156 0.347656 0.367188 0.578125 0.140625 C 0.804688 -0.0859375 1.132812 -0.242188 1.5625 -0.328125 L 1.5625 -0.453125 C 1.332031 -0.585938 1.164062 -0.738281 1.0625 -0.90625 C 0.96875 -1.082031 0.921875 -1.285156 0.921875 -1.515625 C 0.921875 -2.054688 1.273438 -2.421875 1.984375 -2.609375 L 1.984375 -2.75 C 1.617188 -2.957031 1.34375 -3.210938 1.15625 -3.515625 C 0.96875 -3.828125 0.875 -4.203125 0.875 -4.640625 C 0.875 -5.097656 0.976562 -5.5 1.1875 -5.84375 C 1.394531 -6.1875 1.695312 -6.453125 2.09375 -6.640625 C 2.5 -6.828125 2.984375 -6.921875 3.546875 -6.921875 C 4.109375 -6.921875 4.5625 -6.828125 4.90625 -6.640625 C 5.113281 -6.941406 5.234375 -7.289062 5.265625 -7.6875 L 5.390625 -7.765625 L 6.625 -7.46875 C 6.582031 -7.144531 6.484375 -6.867188 6.328125 -6.640625 C 6.179688 -6.421875 5.945312 -6.226562 5.625 -6.0625 L 5.625 -5.921875 C 6.007812 -5.585938 6.203125 -5.117188 6.203125 -4.515625 C 6.203125 -4.097656 6.097656 -3.722656 5.890625 -3.390625 C 5.679688 -3.054688 5.375 -2.789062 4.96875 -2.59375 C 4.570312 -2.40625 4.097656 -2.3125 3.546875 -2.3125 L 3.28125 -2.3125 C 3.125 -2.320312 3.007812 -2.328125 2.9375 -2.328125 C 2.78125 -2.328125 2.65625 -2.285156 2.5625 -2.203125 C 2.476562 -2.117188 2.4375 -2.007812 2.4375 -1.875 C 2.4375 -1.726562 2.492188 -1.613281 2.609375 -1.53125 C 2.722656 -1.457031 2.894531 -1.414062 3.125 -1.40625 L 4.640625 -1.34375 C 6.140625 -1.300781 6.890625 -0.65625 6.890625 0.59375 C 6.890625 1.03125 6.773438 1.421875 6.546875 1.765625 C 6.328125 2.109375 5.96875 2.378906 5.46875 2.578125 C 4.96875 2.785156 4.320312 2.890625 3.53125 2.890625 Z M 3.546875 -3.5 C 3.867188 -3.5 4.125 -3.59375 4.3125 -3.78125 C 4.5 -3.976562 4.59375 -4.257812 4.59375 -4.625 C 4.59375 -4.976562 4.5 -5.25 4.3125 -5.4375 C 4.125 -5.632812 3.867188 -5.734375 3.546875 -5.734375 C 3.210938 -5.734375 2.953125 -5.632812 2.765625 -5.4375 C 2.585938 -5.25 2.5 -4.976562 2.5 -4.625 C 2.5 -4.257812 2.585938 -3.976562 2.765625 -3.78125 C 2.953125 -3.59375 3.210938 -3.5 3.546875 -3.5 Z M 3.53125 1.640625 C 4.113281 1.640625 4.535156 1.554688 4.796875 1.390625 C 5.066406 1.234375 5.203125 1.023438 5.203125 0.765625 C 5.203125 0.546875 5.132812 0.382812 5 0.28125 C 4.863281 0.1875 4.644531 0.132812 4.34375 0.125 L 3 0.0625 C 2.957031 0.0625 2.914062 0.0546875 2.875 0.046875 C 2.832031 0.046875 2.796875 0.046875 2.765625 0.046875 C 2.472656 0.046875 2.25 0.109375 2.09375 0.234375 C 1.945312 0.359375 1.875 0.53125 1.875 0.75 C 1.875 1.03125 2.007812 1.25 2.28125 1.40625 C 2.5625 1.5625 2.976562 1.640625 3.53125 1.640625 Z M 3.53125 1.640625 "/></g></g></g><path fill="#cbacf9" d="M 187.5 0 C 290.890625 0 375 84.109375 375 187.5 C 375 290.890625 290.890625 375 187.5 375 C 84.109375 375 0 290.890625 0 187.5 C 0 84.109375 84.109375 0 187.5 0 Z M 187.761719 133.371094 C 188.257812 133.417969 189.929688 133.734375 193.523438 135.742188 C 205.441406 142.414062 216.960938 149.574219 228.746094 156.375 C 233.230469 158.960938 234.9375 161.9375 234.835938 166.996094 C 234.457031 179.769531 234.648438 189.390625 234.789062 196.410156 C 234.984375 206.3125 235.089844 211.769531 233.46875 214.617188 C 231.84375 217.46875 227.09375 220.179688 218.472656 225.09375 C 212.652344 228.414062 204.675781 232.960938 194.5 239.394531 C 189.695312 242.433594 186.214844 242.425781 181.1875 239.386719 C 155.046875 223.683594 126.738281 206.765625 96.726562 189.425781 C 93.082031 187.171875 87.996094 190.113281 88.117188 194.394531 C 88.117188 198.609375 88.042969 202.753906 87.980469 206.839844 C 87.800781 217.46875 87.632812 227.511719 88.621094 237.722656 C 89.292969 244.648438 95.699219 251.582031 101.359375 255.097656 C 125.324219 269.964844 149.351562 283.800781 173.355469 298.066406 C 178.109375 300.890625 182.910156 302.304688 187.734375 302.304688 C 192.636719 302.304688 197.554688 300.839844 202.464844 297.917969 C 225.027344 284.460938 248.320312 270.683594 273.675781 255.804688 C 283.59375 249.984375 288.363281 241.300781 288.269531 229.25 C 288.054688 202.484375 288.054688 175.160156 288.265625 145.710938 C 288.34375 134.402344 284.074219 126.117188 275.582031 121.082031 C 255.722656 109.316406 235.789062 97.679688 215.859375 86.042969 L 194.359375 73.488281 C 193.484375 72.976562 192.488281 72.703125 191.46875 72.703125 C 191.46875 72.703125 183.894531 72.703125 183.894531 72.703125 C 175.664062 75.222656 165.523438 83.148438 157.289062 87.242188 C 138.628906 98.03125 119.332031 109.191406 100.578125 120.617188 C 82.644531 130.667969 82.175781 160.070312 100.042969 170.378906 C 124.082031 185.316406 148.953125 199.671875 173 213.558594 C 173 213.558594 180.480469 217.882812 180.480469 217.882812 C 187.617188 221.285156 195.359375 218.800781 200.671875 214.789062 C 216.46875 205.488281 221.59375 192.886719 216.792969 175.140625 C 215.460938 170.230469 210.796875 166.757812 208.128906 165.117188 C 196.097656 157.726562 183.207031 150.140625 170.398438 142.523438 C 176.644531 138.941406 182.082031 135.835938 187.761719 133.371094 Z M 205.726562 178.167969 C 205.570312 177.742188 204.449219 176.328125 202.132812 174.898438 C 191.40625 168.320312 180.441406 161.820312 168.835938 154.9375 L 156.035156 147.339844 C 152.28125 145.265625 152.359375 139.339844 156.191406 137.382812 C 165.382812 132.320312 174.289062 126.65625 183.597656 122.667969 C 187.488281 120.996094 192.429688 121.96875 199.132812 125.722656 C 211.160156 132.457031 222.636719 139.59375 234.484375 146.429688 C 242.523438 151.0625 246.503906 158.0625 246.3125 167.28125 C 245.941406 179.824219 246.128906 189.28125 246.269531 196.183594 C 246.757812 220.960938 245.722656 222.773438 224.160156 235.0625 C 218.121094 238.507812 210.597656 242.796875 200.644531 249.09375 C 192.222656 254.429688 183.917969 254.449219 175.269531 249.21875 C 151.675781 235.039062 126.296875 219.867188 99.511719 204.300781 C 99.339844 215.335938 99.042969 226.261719 100.058594 236.617188 C 100.257812 238.664062 103.515625 242.917969 107.425781 245.34375 C 124.144531 255.722656 141.40625 265.886719 158.101562 275.71875 C 165.152344 279.867188 172.203125 284.019531 179.234375 288.203125 C 185.160156 291.71875 190.515625 291.683594 196.59375 288.0625 C 219.175781 274.589844 242.496094 260.796875 267.878906 245.902344 C 274.191406 242.195312 276.859375 237.242188 276.800781 229.339844 C 276.585938 202.515625 276.585938 175.132812 276.796875 145.625 C 276.863281 136.265625 272.800781 132.773438 269.738281 130.960938 C 249.898438 119.203125 229.988281 107.582031 210.078125 95.957031 L 189.914062 84.183594 L 185.449219 84.183594 C 177.992188 88.535156 170.515625 92.859375 163.039062 97.179688 C 144.4375 107.9375 125.191406 119.066406 106.550781 130.421875 C 95.859375 136.386719 95.402344 154.472656 106.109375 160.628906 C 129.988281 175.46875 154.777344 189.78125 178.746094 203.621094 L 186.0625 207.859375 C 186.988281 208.15625 189.933594 207.59375 190.867188 207.417969 C 191.953125 206.917969 193.664062 205.582031 194.851562 204.902344 C 206.089844 198.28125 209.136719 190.78125 205.726562 178.167969 Z M 205.726562 178.167969 " fill-opacity="1" fill-rule="nonzero"/></svg>